<svg width="48" height="48" viewBox="0 0 48 48" fill="none" xmlns="http://www.w3.org/2000/svg">
<g clip-path="url(#clip0_1_7)">
<path d="M0 23.04C0 12.179 0 6.748 3.374 3.374C6.748 0 12.18 0 23.04 0H24.96C35.821 0 41.252 0 44.626 3.374C48 6.748 48 12.18 48 23.04V24.96C48 35.821 48 41.252 44.626 44.626C41.252 48 35.82 48 24.96 48H23.04C12.179 48 6.748 48 3.374 44.626C0 41.252 0 35.82 0 24.96V23.04Z" fill="#0077FF"/>
<path fill-rule="evenodd" clip-rule="evenodd" d="M17.68 36.88C19.2 37 21.16 37 24 37C26.84 37 28.8 37 30.32 36.88C31.3061 36.8568 32.278 36.6393 33.18 36.24C34.4976 35.5688 35.5688 34.4976 36.24 33.18C36.54 32.6 36.76 31.8 36.88 30.32L36.94 29.06L34.34 26.46C33.74 25.86 33.34 25.46 33 25.18C32.8445 25.0268 32.6612 24.9046 32.46 24.82C32.1609 24.7236 31.8391 24.7236 31.54 24.82C31.3388 24.9046 31.1555 25.0268 31 25.18C30.68 25.44 30.28 25.84 29.66 26.46L25.06 31.06C24.7787 31.3409 24.3975 31.4987 24 31.4987C23.6025 31.4987 23.2213 31.3409 22.94 31.06L22.34 30.46C21.74 29.86 21.34 29.46 21 29.18C20.8445 29.0268 20.6612 28.9046 20.46 28.82C20.1609 28.7236 19.8391 28.7236 19.54 28.82C19.3388 28.9046 19.1555 29.0268 19 29.18C18.68 29.44 18.28 29.84 17.66 30.46L13.12 35C13.62 35.48 14.18 35.9 14.82 36.2C15.4 36.52 16.2 36.74 17.68 36.86V36.88ZM36.46 24.34L37 24.88V24C37 21.16 37 19.2 36.88 17.68C36.8568 16.6939 36.6393 15.722 36.24 14.82C35.5688 13.5024 34.4976 12.4312 33.18 11.76C32.278 11.3607 31.3061 11.1432 30.32 11.12C28.2155 11.0029 26.1074 10.9629 24 11C21.16 11 19.2 11 17.68 11.12C16.2 11.24 15.4 11.46 14.82 11.76C13.5024 12.4312 12.4312 13.5024 11.76 14.82C11.46 15.4 11.24 16.2 11.12 17.68C11.0029 19.7845 10.9629 21.8926 11 24C11 26.84 11 28.8 11.12 30.32C11.2 31.26 11.32 31.92 11.46 32.42L15.54 28.34L15.58 28.3C16.14 27.74 16.62 27.26 17.06 26.9C17.52 26.5 18 26.16 18.6 25.96C19.52 25.66 20.48 25.66 21.4 25.96C22 26.16 22.48 26.5 22.94 26.88C23.26 27.16 23.62 27.48 24 27.88L27.54 24.34L27.58 24.3C28.14 23.74 28.62 23.26 29.06 22.9C29.52 22.5 30 22.16 30.6 21.96C31.52 21.66 32.48 21.66 33.4 21.96C34 22.16 34.48 22.5 34.94 22.88C35.38 23.26 35.86 23.74 36.42 24.28L36.46 24.34ZM9.08 13.46C8 15.6 8 18.4 8 24C8 29.6 8 32.4 9.08 34.54C10.0396 36.4268 11.5732 37.9604 13.46 38.92C15.6 40 18.4 40 24 40C29.6 40 32.4 40 34.54 38.92C36.4268 37.9604 37.9604 36.4268 38.92 34.54C40 32.4 40 29.6 40 24C40 18.4 40 15.6 38.9 13.46C37.9456 11.5763 36.4193 10.043 34.54 9.08C32.4 8 29.6 8 24 8C18.4 8 15.6 8 13.46 9.08C11.5732 10.0396 10.0396 11.5732 9.08 13.46ZM18.5 16C17.837 16 17.2011 16.2634 16.7322 16.7322C16.2634 17.2011 16 17.837 16 18.5C16 19.163 16.2634 19.7989 16.7322 20.2678C17.2011 20.7366 17.837 21 18.5 21C19.163 21 19.7989 20.7366 20.2678 20.2678C20.7366 19.7989 21 19.163 21 18.5C21 17.837 20.7366 17.2011 20.2678 16.7322C19.7989 16.2634 19.163 16 18.5 16V16Z" fill="white"/>
</g>
<defs>
<clipPath id="clip0_1_7">
<rect width="48" height="48" fill="white"/>
</clipPath>
</defs>
</svg>
